<?xml version="1.0" encoding="UTF-8"?>
<svg id="Layer_2" data-name="Layer 2" xmlns="http://www.w3.org/2000/svg" xmlns:xlink="http://www.w3.org/1999/xlink" viewBox="0 0 95.33 111.63">
  <defs>
    <style>
      .cls-1 {
        fill: #fff;
      }

      .cls-2 {
        fill: #faf3dd;
      }

      .cls-3 {
        fill: #5f8291;
      }

      .cls-4 {
        fill: #feb548;
      }

      .cls-5 {
        fill: gray;
      }

      .cls-6 {
        fill: #91b4c3;
      }

      .cls-7 {
        clip-path: url(#clippath);
      }

      .cls-8 {
        fill: #6ba06a;
      }

      .cls-9 {
        fill: none;
      }

      .cls-10 {
        fill: #c2c2c2;
      }
    </style>
    <clipPath id="clippath">
      <path class="cls-9" d="M68.47,77.74c-2.25,8.56-3,8.71-9.46,9.01-6.46,.45-6.01-2.25-6.91-9.01-.75-5.86,2.4-9.16,6.76-9.31,4.51,0,10.51,5.71,9.61,9.31Zm-31.39,.15c0,6.16,0,8.56-6.31,8.71-6.31,.15-7.66-3.76-9.01-7.96-1.35-4.36,3.45-10.36,8.41-10.36s6.76,3.45,6.91,9.61Z"/>
    </clipPath>
  </defs>
  <g id="Layer_1-2" data-name="Layer 1">
    <g>
      <g>
        <g>
          <path class="cls-2" d="M46.99,0C29.1,0,12.9,7.21,1.13,18.89l9.25,9.25s.04-.03,.05-.05c0,0,.02-.02,.02-.03h0c9.42-9.35,22.38-15.12,36.69-15.12s28.34,6.27,37.84,16.3h0c.07,.09,.13,.18,.19,.27l9.14-9.14C82.42,7.83,65.63,0,46.99,0Z"/>
          <path class="cls-2" d="M46.99,20.46c-12.2,0-23.26,4.9-31.32,12.82l6.34,6.34c6.46-6.38,15.33-10.32,25.12-10.32,10.39,0,19.74,4.43,26.27,11.51l6.2-6.2c-8.16-8.7-19.74-14.15-32.61-14.15Z"/>
        </g>
        <g>
          <g>
            <path d="M37.11,111.63h-4.79c-1.9-.53-3.79-1.09-5.69-1.59-7.68-2.01-9.98-9.85-15.42-14.16C3.5,89.79-.31,82.41,.44,72.65c0-.33,0-.65,0-.98,.36-.64,.87-1.24,1.05-1.93,2.3-8.82,10.3-15.94,19.41-17.27,1.75-.25,3.59,.11,5.09-1.49,15.7-16.74,38.07-13.12,47.81,7.7,.5,1.08,1.12,1.53,2.35,1.55,9.83,.17,18.5,8.28,19.13,17.81,.7,10.57-6.16,20.02-16.2,21.29-4.38,.55-7.76,1.98-11.12,4.75-5.21,4.28-11.27,4.48-17.48,2.01-.72-.29-1.91-.43-2.44-.04-3.34,2.5-6.88,4.53-10.94,5.58Z"/>
            <path class="cls-10" d="M.44,72.65s-.1,0-.1,0l-.1-.02v-.96c.07,0,.14-.01,.21-.01,0,.33,0,.65,0,.98Z"/>
          </g>
          <g>
            <path class="cls-8" d="M37.11,111.63h-4.79c-1.9-.53-3.79-1.09-5.69-1.59-7.68-2.01-9.98-9.85-15.42-14.16C3.5,89.79-.31,82.41,.44,72.65c0-.33,0-.65,0-.98,.36-.64,.87-1.24,1.05-1.93,2.3-8.82,10.3-15.94,19.41-17.27,1.75-.25,3.59,.11,5.09-1.49,15.7-16.74,38.07-13.12,47.81,7.7,.5,1.08,1.12,1.53,2.35,1.55,9.83,.17,18.5,8.28,19.13,17.81,.7,10.57-6.16,20.02-16.2,21.29-4.38,.55-7.76,1.98-11.12,4.75-5.21,4.28-11.27,4.48-17.48,2.01-.72-.29-1.91-.43-2.44-.04-3.34,2.5-6.88,4.53-10.94,5.58Z"/>
            <path class="cls-8" d="M.44,72.65s-.1,0-.1,0l-.1-.02v-.96c.07,0,.14-.01,.21-.01,0,.33,0,.65,0,.98Z"/>
          </g>
        </g>
      </g>
      <g>
        <g class="cls-7">
          <g>
            <rect class="cls-1" x="19.5" y="65.57" width="49.72" height="21.48"/>
            <path class="cls-5" d="M19.95,67.22l.6,15.77c1.8-9.16,9.31-16.67,16.82-8.41l13.97-.3c8.26-7.51,15.77-.15,17.27,7.51l-.45-14.57H19.95Z"/>
          </g>
        </g>
        <path class="cls-4" d="M64.41,77.59c0,5.11-1.65,8.86-5.71,9.01-3.91,0-6.01-2.85-6.16-7.51-.15-5.56,3.3-8.26,3.6-7.81,.45,.45-1.35,1.35-1.05,3.45s1.2,2.55,2.25,2.55,2.25-.45,2.25-3.3-2.1-2.4-2.25-3c0-.45,7.06-.6,7.06,6.61Zm-28.09,1.95c-.15,4.21-1.95,6.76-5.26,6.76s-5.71-3-6.01-6.76c-.6-5.11,2.1-8.11,2.4-7.66s-.9,.45-.9,2.85c0,.9,.75,2.55,2.4,2.55s2.4-1.95,2.25-3.15c-.45-3.45-2.25-2.25-2.4-2.85-.15-.3,8.26-2.4,7.51,8.26Zm-.3-21.78s-5.86-2.4-10.51-1.05c-4.96,1.35-6.31,5.11-6.61,4.96-.15-.15,1.8-4.06,6.61-5.26,4.96-1.05,10.51,1.35,10.51,1.35Zm16.37,.6s3.76-3,9.46-2.55c5.56,.6,8.11,4.66,8.41,4.51,.15-.15-2.25-4.21-8.56-4.81-6.46-.3-9.31,2.85-9.31,2.85Zm.6,11.27c3.3-3.15,13.97-2.85,15.47,5.56,1.05,5.11-.3,3-.45,6.16,1.65-9.01-7.96-15.47-14.87-10.21-1.2-.3,1.05-1.2-.15-1.5Zm-16.97,.15c-6.31-5.11-16.67,.3-15.32,9.31,.3-1.95,.45,.3,1.65,1.95-2.55-8.71,6.61-15.17,13.37-9.91,1.2-.3-1.95-2.25,.3-1.35Zm17.72,16.22s5.71,1.5,11.42-.3c0,0-5.86,2.85-11.42,.3Zm-27.49,.15s4.81,.75,8.86-.15c0,0-4.06,1.8-8.86,.15Z"/>
        <path class="cls-3" d="M27.31,78.49c-2.1,10.36,10.96,8.26,6.16-1.05,.75,7.06-4.96,8.41-6.16,1.05Zm28.69-.3c-2.4,4.96,.45,7.21,3.6,6.76,3.15-.3,4.36-5.56,1.65-8.26,2.1,8.71-5.56,9.16-5.26,1.5Z"/>
        <path class="cls-6" d="M27.61,81.94c.9,4.96,7.96,3,6.31-1.95,.15,3.45-3.6,5.86-6.31,1.95Zm28.09-1.2c-1.35,4.96,8.26,5.71,6.46-1.2,0,5.56-5.56,6.01-6.46,1.2Z"/>
      </g>
    </g>
  </g>
</svg>